<svg width="40" height="48" viewBox="0 0 40 48" fill="none" xmlns="http://www.w3.org/2000/svg">
<path d="M40 34.8887C38.3058 34.3719 36.7839 33.1658 35.463 31.2706C34.1421 29.3755 33.4817 27.2218 33.4817 24.8672C33.4817 22.6849 34.1134 20.7035 35.3482 18.9232C36.0373 17.9182 37.1285 16.7983 38.6217 15.5348C37.6454 14.3288 36.6403 13.3525 35.6353 12.6633C33.855 11.4286 31.8162 10.7968 29.519 10.7968C28.112 10.7968 26.4465 11.1414 24.5513 11.7732C22.6561 12.4336 21.2778 12.7495 20.4451 12.7495C19.7846 12.7495 18.4637 12.4623 16.4824 11.888C14.4724 11.3137 12.8069 11.0266 11.3999 11.0266C8.09763 11.0266 5.39842 12.4049 3.2448 15.1615C1.09117 17.9469 0 21.5075 0 25.9009C0 30.6102 1.43575 35.4056 4.22111 40.3446C7.06389 45.2836 9.90668 47.7818 12.8643 47.7818C13.8119 47.7818 15.0754 47.4659 16.6547 46.8055C18.2053 46.1737 19.5836 45.8579 20.7322 45.8579C21.9095 45.8579 23.374 46.145 25.0682 46.7767C26.7911 47.3798 28.112 47.6956 29.0883 47.6956C31.5291 47.6956 33.9986 45.8291 36.4681 42.0675C38.1335 39.5693 39.2821 37.1572 40 34.8887ZM29.2032 1.20603C29.2032 1.00503 29.1744 0.832737 29.1744 0.631732C29.1457 0.459441 29.0883 0.258436 29.0309 0C25.6999 0.775306 23.2879 2.18234 21.8521 4.24982C20.4164 6.3173 19.6698 8.78679 19.6123 11.6296C20.962 11.5147 21.9383 11.3424 22.5987 11.1414C23.6324 10.7968 24.6662 10.1077 25.6999 9.07394C26.906 7.86791 27.7961 6.54702 28.3704 5.11127C28.916 3.70424 29.2032 2.38335 29.2032 1.20603Z" fill="#282828"/>
</svg>
