<svg width="400" height="216" viewBox="0 0 400 216" fill="none" xmlns="http://www.w3.org/2000/svg">
<path d="M397.08 100.127C396.182 99.1061 374.686 74.8436 339.875 50.3678C247.178 -14.8088 156.541 -17.4236 60.1245 50.3678C25.3135 74.8436 3.81739 99.1061 2.91973 100.127C-0.973243 104.553 -0.973243 111.181 2.91973 115.607C3.81739 116.628 25.3135 140.891 60.1252 165.366C152.822 230.543 243.459 233.158 339.875 165.366C374.687 140.891 396.182 116.627 397.081 115.607C400.973 111.181 400.973 104.553 397.08 100.127ZM285.114 107.867C285.114 154.548 246.619 191.975 200 191.975C153.304 191.975 114.886 154.47 114.886 107.867C114.886 61.1858 153.382 23.7592 200 23.7592C246.696 23.7592 285.114 61.2639 285.114 107.867ZM27.926 107.867C51.0604 84.7483 80.0073 62.753 110.289 47.3827C85.4003 83.5014 84.9182 131.533 110.289 168.351C79.8557 152.905 50.9221 130.845 27.926 107.867ZM289.71 168.351C314.599 132.233 315.081 84.2014 289.71 47.3827C320.143 62.8296 349.077 84.8889 372.073 107.867C348.988 130.934 320.053 152.951 289.71 168.351Z" fill="white"/>
<path d="M211.718 96.1482H218.583L200 114.732L184.828 99.5607C180.257 94.9873 172.831 94.9841 168.256 99.5607L145.019 122.798C140.443 127.375 140.443 134.794 145.019 139.371C149.595 143.948 157.015 143.947 161.592 139.371L176.543 124.42L191.714 139.59C196.291 144.167 203.71 144.167 208.286 139.59L235.156 112.721V115.679C235.156 122.151 240.403 127.398 246.875 127.398C253.346 127.398 258.593 122.151 258.593 115.679V84.4295C258.593 77.9576 253.346 72.7107 246.875 72.7107H211.718C205.246 72.7107 200 77.9576 200 84.4295C200 90.9013 205.246 96.1482 211.718 96.1482Z" fill="white"/>
</svg>
